<svg xmlns="http://www.w3.org/2000/svg" xmlns:xlink="http://www.w3.org/1999/xlink" viewBox="0,0,256,256" width="48px" height="48px" fill-rule="nonzero"><g transform=""><g fill="none" fill-rule="nonzero" stroke="none" stroke-width="1" stroke-linecap="butt" stroke-linejoin="miter" stroke-miterlimit="10" stroke-dasharray="" stroke-dashoffset="0" font-family="none" font-weight="none" font-size="none" text-anchor="none" style="mix-blend-mode: normal"><g transform="translate(0,11.73689) scale(5.33333,5.33333)"><path d="M41,22c0,0 2,-1 7,-1c-3,-8 -10.53,-8.323 -10.53,-8.323l-0.979,-0.117l2.509,-7.56c-10,0 -13,4 -13,4c0.235,-1.959 1.268,-5.516 3,-6c-10,0 -11,7 -11,7c0,0 -3,-2 -3,-7c-3,2 -5,4 -5,9c0,3 1,5 1,5l22,29h7c0,-3 -2,-5 -2,-5c3,0 6,2 6,2c0,-7 -3,-11 -3,-11c4,0 7,2 7,2c0,-8 -7,-12 -7,-12z" fill="#fbc02d"></path><path d="M40,28c0,6.25 -5,12 -5,12v5.88l-16,0.12c0,0 0,-2 0,-4c0,0 -9.97,0 -14.34,-2c-0.01,0 -0.01,-0.01 -0.02,-0.01l-0.64,-1.99h-1c-0.29,0 -2,-3 -2,-6v-1c0,-1 0.72,-1 1,-1h6v-8c0,0 -1.87,-0.9 -2,-2c0,0 0.93,-1.82 2.25,-3c4.63,-4.12 9.75,-5 15.75,-5c10,0 16,8 16,16z" fill="#673ab7"></path><path d="M1,32c0,0 1,-1.448 1,-2c0,-0.552 -0.448,-1 -1,-1c-0.552,0 -1,0.5 -1,1.125c0,1.25 1,1.875 1,1.875z" fill="#673ab7"></path><path d="M14,29v-10l-4,1l-2,3c0,0 2,0.173 2,2c0,1 0,4 0,4z" fill="#512da8"></path><path d="M17.543,32h-5.543c0,0 0,-1.835 0,-2.217c0,-0.883 0,-2.565 0,-4.783c0,-6 7,-6 7,2c0,4 -1.457,5 -1.457,5z" fill="#ffffff"></path><path d="M13.88,29c1.17,0 2.12,-1.344 2.12,-3c0,-1.656 -0.95,-3 -2.12,-3c-1.63,0 -1.82,1.62 -1.83,1.776c-0.03,0.372 -0.05,0.78 -0.05,1.224c0,0.444 0.02,0.84 0.04,1.2c0,0 0.085,1.8 1.84,1.8z" fill="#ab47bc"></path><path d="M14,26c0,1.107 -0.5,2 -1.12,2c-0.34,0 -0.88,-0.333 -0.88,-2c0,-1.667 0.55,-2 0.88,-2c0.62,0 1.12,0.893 1.12,2z" fill="#000000"></path><path d="M15,23c-0.55228,0 -1,0.44772 -1,1c0,0.55228 0.44772,1 1,1c0.55228,0 1,-0.44772 1,-1c0,-0.55228 -0.44772,-1 -1,-1z" fill="#ffffff"></path><path d="M33.5,24c-0.82843,0 -1.5,0.89543 -1.5,2c0,1.10457 0.67157,2 1.5,2c0.82843,0 1.5,-0.89543 1.5,-2c0,-1.10457 -0.67157,-2 -1.5,-2zM37,27c-1,0 -1,0.875 -1,1.25c0,0.5 0.75,1.75 1,1.75c0.25,0 1,-1.125 1,-1.75c0,-0.375 0,-1.25 -1,-1.25zM34,30c-1,0 -1,0.875 -1,1.25c0,0.5 0.75,1.75 1,1.75c0.25,0 1,-1.125 1,-1.75c0,-0.375 0,-1.25 -1,-1.25z" fill="#512da8"></path><path d="M23,28c-4,0 -5,3 -8,3c-2.5,0 -3,-1.625 -3,-2c-0.844,0 -2,0 -2,0c0,0 0,0 -2,-1c0,0 -3,2 -6,2c0,0 4,4 12,4c4,0 6,-2 6,-2c0.732,0.581 1.725,1 3,1c2.209,0 4,-1.119 4,-2.5c0,-1.381 -1.791,-2.5 -4,-2.5z" fill="#764ebe"></path><path d="M22,36v2c-1.23,0 -2.35,-0.24 -3.25,-0.67c-4.29,2.34 -9.34,2.67 -13.75,2.67h-0.34c-0.01,0 -0.01,-0.01 -0.02,-0.01l-0.64,-1.99h1c4.53,0 9.27,-0.32 13.24,-2.68l0.54,-0.32l0.52,0.35c0.63,0.41 1.61,0.65 2.7,0.65zM31,38c0,0 -1,4 -8,4v2c1,0 8,0 8,-6z" fill="#4a148c"></path><g><path d="M19,42h4v4h-4z" fill="#fbc02d"></path><path d="M19,42h4v2h-4z" fill="#ff8f00"></path></g><g><path d="M15.127,21c-3.127,0 -3.071,2 -7.127,2c0,0 2.817,-5 6.873,-5c5.071,0 9.127,-1 9.127,-1c0,0 -1,4 -4,4c-1.254,0 -3.025,0 -4.873,0z" fill="#311b92"></path><path d="M24,17c0,0 -2,2 -8,2c-2,0 -2.864,0.577 -3.855,1.22c-1.201,0.78 -2.624,2.78 -4.145,2.78c-0.887,0 -2,-1.75 -2,-2.98c1,0 2.057,-0.805 2.75,-1.395c1.467,-1.25 3.25,-2.625 6.25,-2.625c5,0 9,1 9,1z" fill="#7e57c2"></path></g><g><path d="M48,0.04c-0.39,0.04 -1.69,0.64 -3.01,1.83c-0.08,0.07 -0.16,0.14 -0.23,0.22c-0.42,0.4 -0.84,0.87 -1.23,1.41c-0.03,0.04 -0.06,0.08 -0.08,0.12c-0.37,0.51 -0.69,1.09 -0.96,1.73c-0.14,0.33 -0.26,0.68 -0.36,1.04c-0.08,0.29 -0.15,0.6 -0.19,0.91c-0.04,0.14 -0.06,0.28 -0.07,0.44c-0.03,0.28 -0.05,0.48 -0.08,0.64c-0.08,0.73 -0.05,0.5 -0.25,2.17l-0.06,0.53c-0.02,0.21 -0.06,0.45 -0.12,0.74c-0.04,0.21 -0.09,0.45 -0.16,0.7c-0.11,0.38 -0.24,0.79 -0.43,1.24c-0.27,0.66 -0.64,1.38 -1.16,2.13c-0.22,0.33 -0.46,0.66 -0.75,1c-0.27,0.33 -0.58,0.66 -0.92,0.99c-0.26,0.26 -0.54,0.52 -0.84,0.77c-0.88,0.75 -1.94,1.49 -3.21,2.18c-0.3,0.17 -1.56,0.41 -3.48,-0.39c-2.88,-1.21 -4.34,-3.44 -4.4,-5.12c-0.03,-0.39 0.02,-0.7 0.14,-0.97c0.25,-0.71 1.12,-1.41 1.35,-1.59c0.31,-0.24 0.58,-0.43 0.87,-0.62c0.07,-0.06 0.14,-0.11 0.22,-0.16c0.02,-0.02 0.05,-0.04 0.08,-0.06c0.16,-0.11 0.72,-0.46 1.45,-0.9h0.01c0.91,-0.56 2.08,-1.24 2.95,-1.78c0.01,-0.01 0.03,-0.02 0.04,-0.02c0.63,-0.37 1.1,-0.67 1.22,-0.76c0.08,-0.07 0.15,-0.12 0.23,-0.18c0.07,-0.06 0.14,-0.12 0.2,-0.18c0.49,-0.45 0.86,-0.89 1.16,-1.31v-0.03c0.31,-0.45 0.54,-0.88 0.74,-1.31c0.07,-0.15 0.14,-0.3 0.21,-0.45c0.23,-0.46 0.45,-0.91 0.77,-1.36c0.11,-0.16 0.24,-0.33 0.39,-0.49c0.22,-0.27 0.48,-0.53 0.8,-0.79c0.13,-0.1 0.27,-0.2 0.42,-0.31c0.44,-0.32 0.89,-0.58 1.37,-0.81c0.03,-0.01 0.06,-0.02 0.08,-0.04c0.17,-0.08 0.34,-0.15 0.52,-0.21c0.35,-0.15 0.71,-0.27 1.07,-0.38c0.29,-0.09 0.58,-0.16 0.88,-0.23c0.83,-0.18 1.68,-0.29 2.52,-0.34c0.79,-0.06 1.55,-0.05 2.3,0z" fill="#ff8f00"></path><path d="M38.86,16.89c-0.27,0.33 -0.58,0.66 -0.92,0.99c-0.26,0.26 -0.54,0.52 -0.84,0.77c-5.16,-0.96 -7.82,-3.83 -8.73,-6.51c0.07,-0.06 0.14,-0.11 0.22,-0.16c0.02,-0.02 0.05,-0.04 0.08,-0.06c0.16,-0.11 0.72,-0.46 1.45,-0.9c0.56,2.41 3.11,5.29 8.74,5.87zM41.36,11.82c-0.04,0.21 -0.09,0.45 -0.16,0.7c-0.11,0.38 -0.24,0.79 -0.43,1.24c-3.97,-0.61 -6.39,-2.38 -7.65,-4.54c0.63,-0.37 1.1,-0.67 1.22,-0.76c0.08,-0.07 0.15,-0.12 0.23,-0.18c0.07,-0.06 0.14,-0.12 0.2,-0.18c1.11,1.98 3.39,3.28 6.59,3.72zM42.13,6.39c-0.08,0.29 -0.15,0.6 -0.19,0.91c-0.04,0.14 -0.06,0.28 -0.07,0.44c-0.03,0.28 -0.05,0.48 -0.08,0.64c-2.24,-0.71 -3.83,-1.98 -4.91,-3.38c0.23,-0.46 0.45,-0.91 0.77,-1.36c0.11,-0.16 0.24,-0.33 0.39,-0.49c0.77,1.24 2.04,2.51 4.09,3.24zM44.76,2.09c-0.42,0.4 -0.84,0.87 -1.23,1.41c-0.03,0.04 -0.06,0.08 -0.08,0.12c-0.97,-0.71 -1.69,-1.63 -2.22,-2.63c0.35,-0.15 0.71,-0.27 1.07,-0.38c0.29,-0.09 0.58,-0.16 0.88,-0.23c0.38,0.64 0.9,1.24 1.58,1.71z" fill="#ff6f00"></path></g></g></g></g></svg>